<svg width="24" height="25" viewBox="0 0 24 25" fill="none" xmlns="http://www.w3.org/2000/svg">
<mask id="mask0_1184_58693" style="mask-type:luminance" maskUnits="userSpaceOnUse" x="2" y="2" width="20" height="21">
<path fill-rule="evenodd" clip-rule="evenodd" d="M21.7674 10.6818H12.2326V14.5455H17.7209C17.2093 17 15.0698 18.4091 12.2326 18.4091C8.88372 18.4091 6.18605 15.7727 6.18605 12.5C6.18605 9.22727 8.88372 6.59091 12.2326 6.59091C13.6744 6.59091 14.9767 7.09091 16 7.90909L18.9767 5C17.1628 3.45455 14.8372 2.5 12.2326 2.5C6.55814 2.5 2 6.95455 2 12.5C2 18.0455 6.55814 22.5 12.2326 22.5C17.3488 22.5 22 18.8636 22 12.5C22 11.9091 21.907 11.2727 21.7674 10.6818Z" fill="white"/>
</mask>
<g mask="url(#mask0_1184_58693)">
<path d="M1.06982 18.4091V6.59088L8.9768 12.5L1.06982 18.4091Z" fill="#FBBC05"/>
</g>
<mask id="mask1_1184_58693" style="mask-type:luminance" maskUnits="userSpaceOnUse" x="2" y="2" width="20" height="21">
<path fill-rule="evenodd" clip-rule="evenodd" d="M21.7674 10.6818H12.2326V14.5455H17.7209C17.2093 17 15.0698 18.4091 12.2326 18.4091C8.88372 18.4091 6.18605 15.7727 6.18605 12.5C6.18605 9.22727 8.88372 6.59091 12.2326 6.59091C13.6744 6.59091 14.9767 7.09091 16 7.90909L18.9767 5C17.1628 3.45455 14.8372 2.5 12.2326 2.5C6.55814 2.5 2 6.95455 2 12.5C2 18.0455 6.55814 22.5 12.2326 22.5C17.3488 22.5 22 18.8636 22 12.5C22 11.9091 21.907 11.2727 21.7674 10.6818Z" fill="white"/>
</mask>
<g mask="url(#mask1_1184_58693)">
<path d="M1.06982 6.59088L8.9768 12.5L12.2326 9.72724L23.3954 7.95452V1.59088H1.06982V6.59088Z" fill="#EA4335"/>
</g>
<mask id="mask2_1184_58693" style="mask-type:luminance" maskUnits="userSpaceOnUse" x="2" y="2" width="20" height="21">
<path fill-rule="evenodd" clip-rule="evenodd" d="M21.7674 10.6818H12.2326V14.5455H17.7209C17.2093 17 15.0698 18.4091 12.2326 18.4091C8.88372 18.4091 6.18605 15.7727 6.18605 12.5C6.18605 9.22727 8.88372 6.59091 12.2326 6.59091C13.6744 6.59091 14.9767 7.09091 16 7.90909L18.9767 5C17.1628 3.45455 14.8372 2.5 12.2326 2.5C6.55814 2.5 2 6.95455 2 12.5C2 18.0455 6.55814 22.5 12.2326 22.5C17.3488 22.5 22 18.8636 22 12.5C22 11.9091 21.907 11.2727 21.7674 10.6818Z" fill="white"/>
</mask>
<g mask="url(#mask2_1184_58693)">
<path d="M1.06982 18.4091L15.0233 7.95452L18.6977 8.40906L23.3954 1.59088V23.4091H1.06982V18.4091Z" fill="#34A853"/>
</g>
<mask id="mask3_1184_58693" style="mask-type:luminance" maskUnits="userSpaceOnUse" x="2" y="2" width="20" height="21">
<path fill-rule="evenodd" clip-rule="evenodd" d="M21.7674 10.6818H12.2326V14.5455H17.7209C17.2093 17 15.0698 18.4091 12.2326 18.4091C8.88372 18.4091 6.18605 15.7727 6.18605 12.5C6.18605 9.22727 8.88372 6.59091 12.2326 6.59091C13.6744 6.59091 14.9767 7.09091 16 7.90909L18.9767 5C17.1628 3.45455 14.8372 2.5 12.2326 2.5C6.55814 2.5 2 6.95455 2 12.5C2 18.0455 6.55814 22.5 12.2326 22.5C17.3488 22.5 22 18.8636 22 12.5C22 11.9091 21.907 11.2727 21.7674 10.6818Z" fill="white"/>
</mask>
<g mask="url(#mask3_1184_58693)">
<path d="M23.3953 23.4091L8.97668 12.5L7.11621 11.1363L23.3953 6.59088V23.4091Z" fill="#4285F4"/>
</g>
</svg>
