<svg width="24" height="24" viewBox="0 0 24 24" fill="none" xmlns="http://www.w3.org/2000/svg">
<path d="M23.0572 9.78208C23.1199 9.52514 23.0842 9.25407 22.9572 9.02208C22.6331 8.45972 22.2012 7.9669 21.6862 7.57188C21.1712 7.17686 20.5832 6.88743 19.9561 6.72019C19.3289 6.55295 18.6749 6.5112 18.0316 6.59732C17.3883 6.68345 16.7683 6.89577 16.2072 7.22208L14.0572 8.46208L9.05724 6.11208C8.91509 6.03844 8.75733 6 8.59724 6C8.43714 6 8.27939 6.03844 8.13724 6.11208L5.13724 7.84208C4.98898 7.9276 4.86515 8.04975 4.7776 8.19682C4.69006 8.3439 4.64173 8.51098 4.63724 8.68208C4.6324 8.85445 4.67221 9.02514 4.75281 9.17758C4.83341 9.33002 4.95206 9.45903 5.09724 9.55208L8.39724 11.6321L6.65724 12.6321L1.87724 13.2121C1.68508 13.2358 1.50396 13.3149 1.35586 13.4396C1.20776 13.5643 1.09905 13.7294 1.04293 13.9147C0.986808 14.1 0.985689 14.2976 1.03971 14.4835C1.09373 14.6694 1.20056 14.8357 1.34724 14.9621L4.88724 18.0221C5.35329 18.4669 5.95014 18.7498 6.58949 18.8291C7.22883 18.9083 7.8767 18.7796 8.43724 18.4621L22.5572 10.3921C22.6776 10.3296 22.784 10.2433 22.8699 10.1385C22.9559 10.0336 23.0196 9.91234 23.0572 9.78208V9.78208ZM7.52724 16.7821C7.33515 16.8878 7.11364 16.9274 6.89682 16.8949C6.67999 16.8624 6.47987 16.7595 6.32724 16.6021L4.42724 14.9721L7.15724 14.6421C7.29139 14.6249 7.42067 14.5807 7.53724 14.5121L10.8972 12.5821C11.0469 12.4957 11.1717 12.372 11.2593 12.223C11.3469 12.074 11.3945 11.9049 11.3972 11.7321C11.3993 11.5604 11.3571 11.3912 11.2748 11.2406C11.1925 11.0899 11.0728 10.963 10.9272 10.8721L7.62724 8.78208L8.72724 8.15208L13.7272 10.4721C13.8694 10.5457 14.0271 10.5842 14.1872 10.5842C14.3473 10.5842 14.5051 10.5457 14.6472 10.4721L17.2072 8.99208C17.7318 8.69808 18.3327 8.56854 18.9318 8.62025C19.531 8.67196 20.1008 8.90254 20.5672 9.28208L7.52724 16.7821Z" fill="#3B71FE"/>
</svg>
