<svg width="24" height="25" viewBox="0 0 24 25" fill="none" xmlns="http://www.w3.org/2000/svg">
<path d="M13 10.8203C13 10.268 13.4477 9.82031 14 9.82031H15C15.5523 9.82031 16 9.3726 16 8.82031C16 8.26803 15.5523 7.82031 15 7.82031H14C12.3431 7.82031 11 9.16346 11 10.8203V12.8203H10C9.44772 12.8203 9 13.268 9 13.8203C9 14.3726 9.44771 14.8203 10 14.8203H11V20.8203C11 21.3726 11.4477 21.8203 12 21.8203C12.5523 21.8203 13 21.3726 13 20.8203V14.8203H15C15.5523 14.8203 16 14.3726 16 13.8203C16 13.268 15.5523 12.8203 15 12.8203H13V10.8203Z" fill="#777E91"/>
<path fill-rule="evenodd" clip-rule="evenodd" d="M18 4.82031H6C4.89543 4.82031 4 5.71574 4 6.82031V18.8203C4 19.9249 4.89543 20.8203 6 20.8203H18C19.1046 20.8203 20 19.9249 20 18.8203V6.82031C20 5.71574 19.1046 4.82031 18 4.82031ZM6 2.82031C3.79086 2.82031 2 4.61117 2 6.82031V18.8203C2 21.0294 3.79086 22.8203 6 22.8203H18C20.2091 22.8203 22 21.0294 22 18.8203V6.82031C22 4.61117 20.2091 2.82031 18 2.82031H6Z" fill="#777E91"/>
</svg>
