<svg width="24" height="25" viewBox="0 0 24 25" fill="none" xmlns="http://www.w3.org/2000/svg">
<path fill-rule="evenodd" clip-rule="evenodd" d="M16 4.82031H8C5.79086 4.82031 4 6.61117 4 8.82031V16.8203C4 19.0294 5.79086 20.8203 8 20.8203H16C18.2091 20.8203 20 19.0294 20 16.8203V8.82031C20 6.61117 18.2091 4.82031 16 4.82031ZM8 2.82031C4.68629 2.82031 2 5.5066 2 8.82031V16.8203C2 20.134 4.68629 22.8203 8 22.8203H16C19.3137 22.8203 22 20.134 22 16.8203V8.82031C22 5.5066 19.3137 2.82031 16 2.82031H8Z" fill="#777E91"/>
<path d="M17 8.82031C17.5523 8.82031 18 8.37259 18 7.82031C18 7.26803 17.5523 6.82031 17 6.82031C16.4477 6.82031 16 7.26803 16 7.82031C16 8.37259 16.4477 8.82031 17 8.82031Z" fill="#777E91"/>
<path fill-rule="evenodd" clip-rule="evenodd" d="M17 12.8203C17 15.5817 14.7614 17.8203 12 17.8203C9.23858 17.8203 7 15.5817 7 12.8203C7 10.0589 9.23858 7.82031 12 7.82031C14.7614 7.82031 17 10.0589 17 12.8203ZM15 12.8203C15 14.4772 13.6569 15.8203 12 15.8203C10.3431 15.8203 9 14.4772 9 12.8203C9 11.1634 10.3431 9.82031 12 9.82031C13.6569 9.82031 15 11.1634 15 12.8203Z" fill="#777E91"/>
</svg>
