<svg width="24" height="25" viewBox="0 0 24 25" fill="none" xmlns="http://www.w3.org/2000/svg">
<path fill-rule="evenodd" clip-rule="evenodd" d="M18 4.82031H6C4.89543 4.82031 4 5.71574 4 6.82031V18.8203C4 19.9249 4.89543 20.8203 6 20.8203H18C19.1046 20.8203 20 19.9249 20 18.8203V6.82031C20 5.71574 19.1046 4.82031 18 4.82031ZM6 2.82031C3.79086 2.82031 2 4.61117 2 6.82031V18.8203C2 21.0294 3.79086 22.8203 6 22.8203H18C20.2091 22.8203 22 21.0294 22 18.8203V6.82031C22 4.61117 20.2091 2.82031 18 2.82031H6Z" fill="#777E91"/>
<path d="M7 8.82031C7.55228 8.82031 8 8.37259 8 7.82031C8 7.26803 7.55228 6.82031 7 6.82031C6.44772 6.82031 6 7.26803 6 7.82031C6 8.37259 6.44772 8.82031 7 8.82031Z" fill="#777E91"/>
<path d="M7 10.8203C6.44772 10.8203 6 11.268 6 11.8203V17.8203C6 18.3726 6.44772 18.8203 7 18.8203C7.55228 18.8203 8 18.3726 8 17.8203V11.8203C8 11.268 7.55228 10.8203 7 10.8203Z" fill="#777E91"/>
<path d="M14 12.8203C12.8954 12.8203 12 13.7157 12 14.8203V17.8203C12 18.3726 11.5523 18.8203 11 18.8203C10.4477 18.8203 10 18.3726 10 17.8203V11.8203C10 11.268 10.4477 10.8203 11 10.8203C11.4054 10.8203 11.7544 11.0615 11.9114 11.4082C12.5193 11.0353 13.2346 10.8203 14 10.8203C16.2091 10.8203 18 12.6112 18 14.8203V17.8203C18 18.3726 17.5523 18.8203 17 18.8203C16.4477 18.8203 16 18.3726 16 17.8203V14.8203C16 13.7157 15.1046 12.8203 14 12.8203Z" fill="#777E91"/>
</svg>
