<svg width="25" height="24" viewBox="0 0 25 24" fill="none" xmlns="http://www.w3.org/2000/svg">
<path fill-rule="evenodd" clip-rule="evenodd" d="M6.40433 15.3197C6.40433 15.3197 6.40433 15.3197 6.40433 15.32C6.40433 15.3197 6.40433 15.3197 6.40433 15.3197ZM6.41438 15.3388V15.3421C6.41438 15.3425 6.41438 15.3425 6.41438 15.3425C6.41438 15.3425 6.41438 15.3411 6.41438 15.3388ZM11.1577 18.5884C11.8191 18.6924 12.5171 18.6924 13.1786 18.5884V17.451C13.1786 17.1583 13.3681 16.9 13.6473 16.8136C14.3553 16.595 15.0001 16.2216 15.5619 15.7042C15.7746 15.5062 16.0937 15.4715 16.3463 15.6189L17.3302 16.1953C17.523 15.9606 17.6958 15.7132 17.852 15.4555C17.8919 15.3849 17.9351 15.3089 17.9817 15.2325C18.1213 14.9798 18.2476 14.7158 18.3539 14.4445L17.3667 13.8678C17.1174 13.7204 16.9878 13.4257 17.0543 13.141C17.144 12.754 17.1906 12.37 17.1906 11.9993C17.1906 11.6373 17.1474 11.2626 17.0609 10.8862C16.9978 10.6012 17.1274 10.3072 17.38 10.1615L18.3672 9.59178C18.2542 9.29275 18.1146 9.0014 17.9551 8.72138C17.9517 8.71671 17.9385 8.69038 17.9351 8.68571C17.9285 8.67438 17.9152 8.65271 17.9085 8.64071C17.7457 8.36135 17.5629 8.092 17.3568 7.83631L16.3696 8.40602C16.1169 8.5517 15.7979 8.51536 15.5851 8.31602C15.0267 7.79531 14.3553 7.40395 13.6473 7.18493C13.3681 7.09859 13.1786 6.84024 13.1786 6.54755V5.41047C12.5171 5.30646 11.8191 5.30646 11.1577 5.41047V6.54755C11.1577 6.84024 10.9649 7.09859 10.6857 7.18493C9.97768 7.40395 9.33284 7.77731 8.77442 8.29468C8.55837 8.4927 8.23927 8.52736 7.98665 8.38002L7.00278 7.80365C6.81331 8.03833 6.64047 8.28601 6.48425 8.54337C6.28481 8.86572 6.11862 9.20408 5.98234 9.55444L6.96621 10.1311C7.21883 10.2785 7.34514 10.5732 7.27866 10.8579C7.18892 11.2449 7.1457 11.6289 7.1457 11.9993C7.1457 12.3616 7.18892 12.7363 7.27201 13.1127C7.33517 13.3977 7.20886 13.6917 6.95624 13.8374L5.96572 14.4071C6.06543 14.6608 6.18177 14.9145 6.31473 15.1655L6.41112 15.3349C6.41444 15.3425 6.42109 15.3505 6.42442 15.3582C6.58729 15.6375 6.77343 15.9069 6.97619 16.1626L7.96671 15.5929C8.21933 15.4472 8.5351 15.4835 8.75116 15.6829C9.30625 16.2036 9.97768 16.595 10.6857 16.8136C10.9649 16.9 11.1577 17.1583 11.1577 17.451V18.5884ZM12.1743 20.0002C11.5494 20.0002 10.9345 19.9272 10.3395 19.7828C10.0437 19.7102 9.83425 19.4428 9.83425 19.1351V17.9224C9.25922 17.6927 8.71742 17.375 8.22548 16.9846L7.1718 17.5923C6.90589 17.7463 6.56685 17.696 6.35744 17.4707C5.9486 17.0336 5.58962 16.5546 5.29379 16.0462C5.27717 16.0222 5.26055 15.9962 5.24725 15.9649L5.15086 15.8012C4.88495 15.3002 4.67554 14.7935 4.52929 14.2888C4.44287 13.9931 4.5725 13.6774 4.83841 13.524L5.88877 12.9173C5.84556 12.6086 5.82229 12.3016 5.82229 11.9996C5.82229 11.6862 5.84556 11.3669 5.89542 11.0452L4.84506 10.4305C4.57915 10.2751 4.45616 9.95712 4.54258 9.66176C4.73537 9.02472 5.00793 8.415 5.35362 7.84996C5.64612 7.36526 5.99513 6.90756 6.39068 6.49186C6.60341 6.26818 6.93913 6.21951 7.20504 6.37552L8.25872 6.99023C8.74069 6.60721 9.26919 6.30118 9.83425 6.0765V4.86441C9.83425 4.55672 10.0437 4.28937 10.3395 4.2167C11.5261 3.92801 12.8225 3.92801 14.0058 4.2167C14.3049 4.28937 14.5143 4.55672 14.5143 4.86441V6.07717C15.086 6.30685 15.6312 6.62421 16.1198 7.0149L17.1735 6.40719C17.4427 6.25285 17.7784 6.30352 17.9911 6.52887C18.4 6.9669 18.759 7.44693 19.0548 7.9563C19.0747 7.98764 19.0947 8.01998 19.1113 8.05198C19.4138 8.58202 19.6498 9.13706 19.816 9.70977C19.9024 10.0055 19.7761 10.3218 19.5102 10.4755L18.4565 11.0822C18.503 11.3909 18.5263 11.6979 18.5263 11.9996C18.5263 12.3133 18.4997 12.6326 18.4498 12.9543L19.5002 13.569C19.7661 13.7244 19.8924 14.0417 19.8027 14.3368C19.6431 14.8745 19.4204 15.3975 19.1412 15.8922C19.0914 15.9816 19.0448 16.0642 18.995 16.1439C18.6991 16.6343 18.3501 17.0923 17.9579 17.5073C17.7452 17.7313 17.4061 17.7794 17.1402 17.6237L16.0899 17.0093C15.6046 17.3923 15.0794 17.6983 14.5143 17.923V19.1351C14.5143 19.4428 14.3049 19.7102 14.0058 19.7828C13.4141 19.9272 12.7959 20.0002 12.1743 20.0002Z" fill="#3B71FE"/>
<path fill-rule="evenodd" clip-rule="evenodd" d="M12.1738 10.3462C11.2631 10.3462 10.5251 11.0879 10.5251 11.999C10.5251 12.9104 11.2631 13.6521 12.1738 13.6521C13.0812 13.6521 13.8225 12.9104 13.8225 11.999C13.8225 11.0879 13.0812 10.3462 12.1738 10.3462ZM12.171 14.6523C10.7118 14.6523 9.52515 13.4622 9.52515 11.9991C9.52515 10.5363 10.7118 9.34625 12.171 9.34625C13.6302 9.34625 14.8168 10.5363 14.8168 11.9991C14.8168 13.4622 13.6302 14.6523 12.171 14.6523Z" fill="#3B71FE"/>
</svg>
