<svg width="21" height="25" viewBox="0 0 21 25" fill="none" xmlns="http://www.w3.org/2000/svg">
<path d="M2.51236 14.9647L7.4279 14.8201L9.02055 11.3694C9.19101 11.0001 8.87333 10.5965 8.47632 10.685C7.1581 10.9791 5.30282 11.466 4.26123 11.9868C3.26107 12.4869 2.51099 13.5184 2.08133 14.3075C1.91054 14.6212 2.15534 14.9752 2.51236 14.9647Z" fill="white"/>
<path d="M18.619 24.2789L14.4042 16.903C14.0338 16.2548 13.1092 16.2252 12.6953 16.8465C11.4016 18.7885 9.60367 21.4341 8.76153 22.4868C7.69486 23.8202 6.53931 24.0424 6.09486 23.9868C4.87265 23.9313 2.0949 23.7201 0.761565 23.3202C-0.571768 22.9202 0.12166 22.1016 0.761565 21.8202C1.52536 21.4842 3.42823 20.8868 4.76157 20.4868C6.0949 20.0869 7.0949 18.5424 7.42823 17.8202L12.4282 8.32007C13.706 5.70896 16.7282 0.520067 18.5949 0.6534C20.4616 0.786733 19.9282 2.82007 19.4282 3.82007L16.7571 9.63373C16.6528 9.8608 16.6367 10.1169 16.713 10.3549C17.6984 13.4285 19.5828 19.3226 20.0949 20.9867C20.5188 22.3643 19.918 23.6225 19.3468 24.3599C19.1509 24.6127 18.7777 24.5566 18.619 24.2789Z" fill="white"/>
</svg>
