<svg width="20" height="21" viewBox="0 0 20 21" fill="none" xmlns="http://www.w3.org/2000/svg">
<path d="M10 20.0114C10 20.2877 10.2241 20.513 10.4999 20.4994C15.7905 20.2388 20 15.8642 20 10.5059C20 4.97977 15.5228 0.5 10 0.5C4.47715 0.5 0 4.97977 0 10.5059C0 15.1337 3.13989 19.0277 7.40433 20.1713C7.70966 20.2533 8 20.0158 8 19.6995V12.507H7C6.44771 12.507 6 12.0591 6 11.5064C6 10.9538 6.44772 10.5059 7 10.5059H8V8.50469C8 6.84687 9.3431 5.50293 11 5.50293H12C12.5523 5.50293 13 5.95091 13 6.50352C13 7.05613 12.5523 7.5041 12 7.5041H11C10.4477 7.5041 10 7.95208 10 8.50469V10.5059H12C12.5523 10.5059 13 10.9538 13 11.5064C13 12.0591 12.5523 12.507 12 12.507H10V20.0114Z" fill="#4776D0"/>
</svg>
