<svg width="16" height="14" viewBox="0 0 16 14" fill="none" xmlns="http://www.w3.org/2000/svg">
<path d="M15.9332 6.675C14.3178 2.86438 11.2789 0.5 8 0.5C4.72114 0.5 1.6822 2.86438 0.0667645 6.675C0.0227292 6.77751 0 6.88815 0 7C0 7.11185 0.0227292 7.22249 0.0667645 7.325C1.6822 11.1356 4.72114 13.5 8 13.5C11.2789 13.5 14.3178 11.1356 15.9332 7.325C15.9773 7.22249 16 7.11185 16 7C16 6.88815 15.9773 6.77751 15.9332 6.675V6.675ZM8 11.875C5.46488 11.875 3.06572 10.0144 1.6822 7C3.06572 3.98562 5.46488 2.125 8 2.125C10.5351 2.125 12.9343 3.98562 14.3178 7C12.9343 10.0144 10.5351 11.875 8 11.875ZM8 3.75C7.36732 3.75 6.74885 3.94061 6.22279 4.29772C5.69674 4.65484 5.28673 5.16242 5.04461 5.75628C4.8025 6.35014 4.73915 7.00361 4.86258 7.63404C4.98601 8.26448 5.29067 8.84358 5.73805 9.2981C6.18542 9.75262 6.75541 10.0622 7.37593 10.1876C7.99645 10.313 8.63964 10.2486 9.22416 10.0026C9.80868 9.75662 10.3083 9.34006 10.6598 8.8056C11.0113 8.27114 11.1989 7.64279 11.1989 7C11.1989 6.13805 10.8619 5.3114 10.262 4.7019C9.66205 4.09241 8.8484 3.75 8 3.75V3.75ZM8 8.625C7.68366 8.625 7.37442 8.5297 7.1114 8.35114C6.84837 8.17258 6.64337 7.91879 6.52231 7.62186C6.40125 7.32493 6.36958 6.9982 6.43129 6.68298C6.493 6.36776 6.64534 6.07821 6.86902 5.85095C7.09271 5.62369 7.3777 5.46892 7.68796 5.40622C7.99823 5.34352 8.31982 5.3757 8.61208 5.4987C8.90434 5.62169 9.15414 5.82997 9.32989 6.0972C9.50564 6.36443 9.59944 6.67861 9.59944 7C9.59944 7.43098 9.43093 7.8443 9.13098 8.14905C8.83102 8.45379 8.4242 8.625 8 8.625Z" fill="#B1B5C4"/>
</svg>
