<svg width="25" height="25" viewBox="0 0 25 25" fill="none" xmlns="http://www.w3.org/2000/svg">
<path d="M13.6187 10.1692C13.6187 9.61691 14.0664 9.16919 14.6187 9.16919H15.6187C16.171 9.16919 16.6187 8.72148 16.6187 8.16919C16.6187 7.61691 16.171 7.16919 15.6187 7.16919H14.6187C12.9618 7.16919 11.6187 8.51234 11.6187 10.1692V12.1692H10.6187C10.0664 12.1692 9.61865 12.6169 9.61865 13.1692C9.61865 13.7215 10.0664 14.1692 10.6187 14.1692H11.6187V20.1692C11.6187 20.7215 12.0664 21.1692 12.6187 21.1692C13.171 21.1692 13.6187 20.7215 13.6187 20.1692V14.1692H15.6187C16.171 14.1692 16.6187 13.7215 16.6187 13.1692C16.6187 12.6169 16.171 12.1692 15.6187 12.1692H13.6187V10.1692Z" fill="#777E91"/>
<path fill-rule="evenodd" clip-rule="evenodd" d="M18.6187 4.16919H6.61865C5.51408 4.16919 4.61865 5.06462 4.61865 6.16919V18.1692C4.61865 19.2738 5.51408 20.1692 6.61865 20.1692H18.6187C19.7233 20.1692 20.6187 19.2738 20.6187 18.1692V6.16919C20.6187 5.06462 19.7233 4.16919 18.6187 4.16919ZM6.61865 2.16919C4.40951 2.16919 2.61865 3.96005 2.61865 6.16919V18.1692C2.61865 20.3783 4.40951 22.1692 6.61865 22.1692H18.6187C20.8278 22.1692 22.6187 20.3783 22.6187 18.1692V6.16919C22.6187 3.96005 20.8278 2.16919 18.6187 2.16919H6.61865Z" fill="#777E91"/>
</svg>
