<svg width="25" height="25" viewBox="0 0 25 25" fill="none" xmlns="http://www.w3.org/2000/svg">
<path fill-rule="evenodd" clip-rule="evenodd" d="M16.6187 4.16919H8.61865C6.40951 4.16919 4.61865 5.96005 4.61865 8.16919V16.1692C4.61865 18.3783 6.40951 20.1692 8.61865 20.1692H16.6187C18.8278 20.1692 20.6187 18.3783 20.6187 16.1692V8.16919C20.6187 5.96005 18.8278 4.16919 16.6187 4.16919ZM8.61865 2.16919C5.30494 2.16919 2.61865 4.85548 2.61865 8.16919V16.1692C2.61865 19.4829 5.30494 22.1692 8.61865 22.1692H16.6187C19.9324 22.1692 22.6187 19.4829 22.6187 16.1692V8.16919C22.6187 4.85548 19.9324 2.16919 16.6187 2.16919H8.61865Z" fill="#777E91"/>
<path d="M17.6187 8.16919C18.171 8.16919 18.6187 7.72147 18.6187 7.16919C18.6187 6.61691 18.171 6.16919 17.6187 6.16919C17.0664 6.16919 16.6187 6.61691 16.6187 7.16919C16.6187 7.72147 17.0664 8.16919 17.6187 8.16919Z" fill="#777E91"/>
<path fill-rule="evenodd" clip-rule="evenodd" d="M17.6187 12.1692C17.6187 14.9306 15.3801 17.1692 12.6187 17.1692C9.85723 17.1692 7.61865 14.9306 7.61865 12.1692C7.61865 9.40777 9.85723 7.16919 12.6187 7.16919C15.3801 7.16919 17.6187 9.40777 17.6187 12.1692ZM15.6187 12.1692C15.6187 13.8261 14.2756 15.1692 12.6187 15.1692C10.9618 15.1692 9.61865 13.8261 9.61865 12.1692C9.61865 10.5123 10.9618 9.16919 12.6187 9.16919C14.2756 9.16919 15.6187 10.5123 15.6187 12.1692Z" fill="#777E91"/>
</svg>
