<svg width="25" height="25" viewBox="0 0 25 25" fill="none" xmlns="http://www.w3.org/2000/svg">
<path fill-rule="evenodd" clip-rule="evenodd" d="M18.6187 4.16919H6.61865C5.51408 4.16919 4.61865 5.06462 4.61865 6.16919V18.1692C4.61865 19.2738 5.51408 20.1692 6.61865 20.1692H18.6187C19.7233 20.1692 20.6187 19.2738 20.6187 18.1692V6.16919C20.6187 5.06462 19.7233 4.16919 18.6187 4.16919ZM6.61865 2.16919C4.40951 2.16919 2.61865 3.96005 2.61865 6.16919V18.1692C2.61865 20.3783 4.40951 22.1692 6.61865 22.1692H18.6187C20.8278 22.1692 22.6187 20.3783 22.6187 18.1692V6.16919C22.6187 3.96005 20.8278 2.16919 18.6187 2.16919H6.61865Z" fill="#777E91"/>
<path d="M7.61865 8.16919C8.17093 8.16919 8.61865 7.72147 8.61865 7.16919C8.61865 6.61691 8.17093 6.16919 7.61865 6.16919C7.06637 6.16919 6.61865 6.61691 6.61865 7.16919C6.61865 7.72147 7.06637 8.16919 7.61865 8.16919Z" fill="#777E91"/>
<path d="M7.61865 10.1692C7.06637 10.1692 6.61865 10.6169 6.61865 11.1692V17.1692C6.61865 17.7215 7.06637 18.1692 7.61865 18.1692C8.17093 18.1692 8.61865 17.7215 8.61865 17.1692V11.1692C8.61865 10.6169 8.17093 10.1692 7.61865 10.1692Z" fill="#777E91"/>
<path d="M14.6187 12.1692C13.5141 12.1692 12.6187 13.0646 12.6187 14.1692V17.1692C12.6187 17.7215 12.171 18.1692 11.6187 18.1692C11.0664 18.1692 10.6187 17.7215 10.6187 17.1692V11.1692C10.6187 10.6169 11.0664 10.1692 11.6187 10.1692C12.0241 10.1692 12.3731 10.4104 12.5301 10.7571C13.138 10.3842 13.8533 10.1692 14.6187 10.1692C16.8278 10.1692 18.6187 11.9601 18.6187 14.1692V17.1692C18.6187 17.7215 18.171 18.1692 17.6187 18.1692C17.0664 18.1692 16.6187 17.7215 16.6187 17.1692V14.1692C16.6187 13.0646 15.7233 12.1692 14.6187 12.1692Z" fill="#777E91"/>
</svg>
