<svg width="21" height="25" viewBox="0 0 21 25" fill="none" xmlns="http://www.w3.org/2000/svg">
<path d="M3.13101 14.483L8.04655 14.3385L9.6392 10.8877C9.80967 10.5184 9.49198 10.1148 9.09497 10.2034C7.77676 10.4974 5.92148 10.9843 4.87988 11.5051C3.87972 12.0052 3.12964 13.0367 2.69999 13.8258C2.52919 14.1395 2.77399 14.4935 3.13101 14.483Z" fill="white"/>
<path d="M19.2376 23.7972L15.0229 16.4213C14.6525 15.7732 13.7278 15.7435 13.3139 16.3648C12.0202 18.3068 10.2223 20.9525 9.38018 22.0051C8.31351 23.3385 7.15796 23.5607 6.71351 23.5051C5.4913 23.4496 2.71355 23.2385 1.38022 22.8385C0.0468839 22.4385 0.740313 21.6199 1.38022 21.3385C2.14402 21.0025 4.04688 20.4051 5.38022 20.0051C6.71355 19.6052 7.71355 18.0607 8.04688 17.3385L13.0469 7.83838C14.3247 5.22727 17.3469 0.0383771 19.2136 0.17171C21.0802 0.305044 20.5469 2.33838 20.0469 3.33838L17.3757 9.15204C17.2714 9.37911 17.2553 9.63524 17.3316 9.8732C18.317 12.9468 20.2015 18.8409 20.7136 20.505C21.1374 21.8826 20.5367 23.1408 19.9655 23.8782C19.7696 24.131 19.3963 24.0749 19.2376 23.7972Z" fill="white"/>
</svg>
