<svg width="23" height="19" viewBox="0 0 23 19" fill="none" xmlns="http://www.w3.org/2000/svg">
<path fill-rule="evenodd" clip-rule="evenodd" d="M2.73456 11.169C1.06904 11.1737 -0.00609541 13.0576 1.01997 14.4849C2.48941 16.5288 5.15404 18.1692 9.60258 18.1692C16.4965 18.1692 22.0303 12.5909 21.2557 6.00029L22.3906 3.74649C23.1777 2.18347 21.81 0.405409 20.0842 0.748129L18.5847 1.04588C18.1872 0.837619 17.7758 0.680459 17.4242 0.566599C16.739 0.344709 15.9096 0.169189 15.1418 0.169189C13.7628 0.169189 12.5725 0.5205 11.6266 1.22512C10.6915 1.92183 10.1648 2.83744 9.87572 3.67824C9.74247 4.0658 9.65375 4.45453 9.59681 4.82762C9.06175 4.66042 8.51617 4.43545 7.98205 4.16074C6.77026 3.53751 5.79037 2.74741 5.2376 2.0547C4.3102 0.892489 2.34483 0.978659 1.65516 2.4894C0.683136 4.61866 0.949775 7.14265 1.82351 9.18209C2.11636 9.86559 2.49731 10.5413 2.96272 11.1675C2.88305 11.1684 2.80682 11.1688 2.73456 11.169ZM9.60248 16.1692C5.71157 16.1692 3.69964 14.7699 2.65932 13.3229C2.61258 13.2579 2.65971 13.1692 2.74015 13.169C3.79849 13.166 5.97089 13.1163 7.40364 12.2837C7.47774 12.2406 7.46143 12.1321 7.38005 12.105C4.04022 10.99 2.14173 6.26778 3.48966 3.31509C3.52057 3.24739 3.61222 3.23846 3.65872 3.29673C5.1985 5.22637 8.56516 7.11639 11.4943 7.1681C11.5578 7.16919 11.6059 7.11189 11.5962 7.04952C11.4782 6.28972 11.0275 2.16919 15.1417 2.16919C16.1242 2.16919 17.586 2.64502 18.1244 3.13249C18.1492 3.15502 18.183 3.16525 18.216 3.15869L20.4791 2.70929C20.5612 2.69297 20.6264 2.77764 20.5889 2.85207L19.1853 5.63938C19.1755 5.65873 19.1725 5.68094 19.1762 5.70225C20.1593 11.1892 15.6332 16.1692 9.60248 16.1692Z" fill="#777E91"/>
</svg>
