<svg width="251" height="120" viewBox="0 0 251 120" fill="none" xmlns="http://www.w3.org/2000/svg">
<path fill-rule="evenodd" clip-rule="evenodd" d="M198.763 59.6103V95.1692C198.763 108.424 188.017 119.169 174.763 119.169H0.172363C1.24687 114.886 3.05432 110.71 5.63114 106.819L64.1606 18.4432C76.3587 0.0247898 101.178 -5.01773 119.597 7.18036L198.763 59.6103Z" fill="url(#paint0_linear_1192_49307)" fill-opacity="0.4"/>
<path fill-rule="evenodd" clip-rule="evenodd" d="M251 59.6103V95.1692C251 108.424 240.255 119.169 227 119.169H52.4097C53.4842 114.886 55.2916 110.71 57.8684 106.819L116.398 18.4432C128.596 0.0247898 153.416 -5.01773 171.834 7.18036L251 59.6103Z" fill="url(#paint1_linear_1192_49307)"/>
<defs>
<linearGradient id="paint0_linear_1192_49307" x1="59.6724" y1="31.5254" x2="77.6724" y2="105.525" gradientUnits="userSpaceOnUse">
<stop stop-color="#2B64FB"/>
<stop offset="1" stop-color="#2B64FB" stop-opacity="0"/>
</linearGradient>
<linearGradient id="paint1_linear_1192_49307" x1="147.672" y1="-21.9746" x2="102.672" y2="104.025" gradientUnits="userSpaceOnUse">
<stop stop-color="#285BE0"/>
<stop offset="1" stop-color="#3B71FE"/>
</linearGradient>
</defs>
</svg>
