<svg width="24" height="25" viewBox="0 0 24 25" fill="none" xmlns="http://www.w3.org/2000/svg">
<path fill-rule="evenodd" clip-rule="evenodd" d="M18 4.16919H6C4.89543 4.16919 4 5.06462 4 6.16919V18.1692C4 19.2738 4.89543 20.1692 6 20.1692H18C19.1046 20.1692 20 19.2738 20 18.1692V6.16919C20 5.06462 19.1046 4.16919 18 4.16919ZM6 2.16919C3.79086 2.16919 2 3.96005 2 6.16919V18.1692C2 20.3783 3.79086 22.1692 6 22.1692H18C20.2091 22.1692 22 20.3783 22 18.1692V6.16919C22 3.96005 20.2091 2.16919 18 2.16919H6Z" fill="#777E91"/>
<path d="M7 8.16919C7.55228 8.16919 8 7.72147 8 7.16919C8 6.61691 7.55228 6.16919 7 6.16919C6.44772 6.16919 6 6.61691 6 7.16919C6 7.72147 6.44772 8.16919 7 8.16919Z" fill="#777E91"/>
<path d="M7 10.1692C6.44772 10.1692 6 10.6169 6 11.1692V17.1692C6 17.7215 6.44772 18.1692 7 18.1692C7.55228 18.1692 8 17.7215 8 17.1692V11.1692C8 10.6169 7.55228 10.1692 7 10.1692Z" fill="#777E91"/>
<path d="M14 12.1692C12.8954 12.1692 12 13.0646 12 14.1692V17.1692C12 17.7215 11.5523 18.1692 11 18.1692C10.4477 18.1692 10 17.7215 10 17.1692V11.1692C10 10.6169 10.4477 10.1692 11 10.1692C11.4054 10.1692 11.7544 10.4104 11.9114 10.7571C12.5193 10.3842 13.2346 10.1692 14 10.1692C16.2091 10.1692 18 11.9601 18 14.1692V17.1692C18 17.7215 17.5523 18.1692 17 18.1692C16.4477 18.1692 16 17.7215 16 17.1692V14.1692C16 13.0646 15.1046 12.1692 14 12.1692Z" fill="#777E91"/>
</svg>
