<svg width="25" height="25" viewBox="0 0 25 25" fill="none" xmlns="http://www.w3.org/2000/svg">
<path fill-rule="evenodd" clip-rule="evenodd" d="M17.6172 17.085H8.61716V10.5848C8.61716 8.08467 10.6172 6.08459 13.1172 6.08459C15.6172 6.08459 17.6172 8.08467 17.6172 10.5848V17.085ZM19.6191 16.0851V10.5849C19.6191 7.51479 17.4791 4.9447 14.6191 4.26467V3.58465C14.6191 2.75619 13.9476 2.08459 13.1191 2.08459C12.2907 2.08459 11.6191 2.75619 11.6191 3.58465V4.26467C8.74914 4.9447 6.61914 7.51479 6.61914 10.5849V16.0851L4.61914 18.0852V19.0852H21.6191V18.0852L19.6191 16.0851ZM13.1191 22.0847C14.2236 22.0847 15.1191 21.1892 15.1191 20.0846H11.1191C11.1191 21.1892 12.0145 22.0847 13.1191 22.0847Z" fill="#777E91"/>
</svg>
