<svg width="24" height="25" viewBox="0 0 24 25" fill="none" xmlns="http://www.w3.org/2000/svg">
<path fill-rule="evenodd" clip-rule="evenodd" d="M16 4.16919H8C5.79086 4.16919 4 5.96005 4 8.16919V16.1692C4 18.3783 5.79086 20.1692 8 20.1692H16C18.2091 20.1692 20 18.3783 20 16.1692V8.16919C20 5.96005 18.2091 4.16919 16 4.16919ZM8 2.16919C4.68629 2.16919 2 4.85548 2 8.16919V16.1692C2 19.4829 4.68629 22.1692 8 22.1692H16C19.3137 22.1692 22 19.4829 22 16.1692V8.16919C22 4.85548 19.3137 2.16919 16 2.16919H8Z" fill="#777E91"/>
<path d="M17 8.16919C17.5523 8.16919 18 7.72147 18 7.16919C18 6.61691 17.5523 6.16919 17 6.16919C16.4477 6.16919 16 6.61691 16 7.16919C16 7.72147 16.4477 8.16919 17 8.16919Z" fill="#777E91"/>
<path fill-rule="evenodd" clip-rule="evenodd" d="M17 12.1692C17 14.9306 14.7614 17.1692 12 17.1692C9.23858 17.1692 7 14.9306 7 12.1692C7 9.40777 9.23858 7.16919 12 7.16919C14.7614 7.16919 17 9.40777 17 12.1692ZM15 12.1692C15 13.8261 13.6569 15.1692 12 15.1692C10.3431 15.1692 9 13.8261 9 12.1692C9 10.5123 10.3431 9.16919 12 9.16919C13.6569 9.16919 15 10.5123 15 12.1692Z" fill="#777E91"/>
</svg>
