<svg width="24" height="25" viewBox="0 0 24 25" fill="none" xmlns="http://www.w3.org/2000/svg">
<path d="M13 10.1692C13 9.61691 13.4477 9.16919 14 9.16919H15C15.5523 9.16919 16 8.72148 16 8.16919C16 7.61691 15.5523 7.16919 15 7.16919H14C12.3431 7.16919 11 8.51234 11 10.1692V12.1692H10C9.44772 12.1692 9 12.6169 9 13.1692C9 13.7215 9.44771 14.1692 10 14.1692H11V20.1692C11 20.7215 11.4477 21.1692 12 21.1692C12.5523 21.1692 13 20.7215 13 20.1692V14.1692H15C15.5523 14.1692 16 13.7215 16 13.1692C16 12.6169 15.5523 12.1692 15 12.1692H13V10.1692Z" fill="#777E91"/>
<path fill-rule="evenodd" clip-rule="evenodd" d="M18 4.16919H6C4.89543 4.16919 4 5.06462 4 6.16919V18.1692C4 19.2738 4.89543 20.1692 6 20.1692H18C19.1046 20.1692 20 19.2738 20 18.1692V6.16919C20 5.06462 19.1046 4.16919 18 4.16919ZM6 2.16919C3.79086 2.16919 2 3.96005 2 6.16919V18.1692C2 20.3783 3.79086 22.1692 6 22.1692H18C20.2091 22.1692 22 20.3783 22 18.1692V6.16919C22 3.96005 20.2091 2.16919 18 2.16919H6Z" fill="#777E91"/>
</svg>
