<svg width="24" height="25" viewBox="0 0 24 25" fill="none" xmlns="http://www.w3.org/2000/svg">
<path fill-rule="evenodd" clip-rule="evenodd" d="M11.7148 12.1256C10.5877 12.1256 9.67396 11.2301 9.67396 10.1256C9.67396 9.59512 9.88897 9.08642 10.2717 8.71134C10.6544 8.33627 11.1735 8.12556 11.7148 8.12556C12.8419 8.12556 13.7556 9.02099 13.7556 10.1256C13.7556 10.656 13.5406 11.1647 13.1578 11.5398C12.7751 11.9148 12.256 12.1256 11.7148 12.1256ZM11.7143 4.52539C8.55837 4.52539 6 7.0326 6 10.1254C6 14.3254 11.7143 20.5254 11.7143 20.5254C11.7143 20.5254 17.4286 14.3254 17.4286 10.1254C17.4286 7.0326 14.8702 4.52539 11.7143 4.52539Z" fill="white"/>
</svg>
