<svg width="21" height="25" viewBox="0 0 21 25" fill="none" xmlns="http://www.w3.org/2000/svg">
<path d="M2.51236 14.483L7.4279 14.3385L9.02055 10.8877C9.19101 10.5184 8.87333 10.1148 8.47632 10.2034C7.1581 10.4974 5.30282 10.9843 4.26123 11.5051C3.26107 12.0052 2.51099 13.0367 2.08133 13.8258C1.91054 14.1395 2.15534 14.4935 2.51236 14.483Z" fill="white"/>
<path d="M18.619 23.7972L14.4042 16.4213C14.0338 15.7732 13.1092 15.7435 12.6953 16.3648C11.4016 18.3068 9.60367 20.9525 8.76153 22.0051C7.69486 23.3385 6.53931 23.5607 6.09486 23.5051C4.87265 23.4496 2.0949 23.2385 0.761565 22.8385C-0.571768 22.4385 0.12166 21.6199 0.761565 21.3385C1.52536 21.0025 3.42823 20.4051 4.76157 20.0051C6.0949 19.6052 7.0949 18.0607 7.42823 17.3385L12.4282 7.83838C13.706 5.22727 16.7282 0.0383771 18.5949 0.17171C20.4616 0.305044 19.9282 2.33838 19.4282 3.33838L16.7571 9.15204C16.6528 9.37911 16.6367 9.63524 16.713 9.8732C17.6984 12.9468 19.5828 18.8409 20.0949 20.505C20.5188 21.8826 19.918 23.1408 19.3468 23.8782C19.1509 24.131 18.7777 24.0749 18.619 23.7972Z" fill="white"/>
</svg>
