<svg width="21" height="25" viewBox="0 0 21 25" fill="none" xmlns="http://www.w3.org/2000/svg">
<path d="M2.89371 14.3138L7.80925 14.1693L9.4019 10.7185C9.57236 10.3492 9.25468 9.9456 8.85767 10.0342C7.53945 10.3282 5.68417 10.8151 4.64258 11.3359C3.64242 11.836 2.89233 12.8675 2.46268 13.6566C2.29188 13.9703 2.53669 14.3243 2.89371 14.3138Z" fill="white"/>
<path d="M19.0003 23.628L14.7856 16.2522C14.4152 15.604 13.4905 15.5743 13.0766 16.1956C11.7829 18.1376 9.98501 20.7833 9.14288 21.8359C8.07621 23.1693 6.92065 23.3915 6.47621 23.3359C5.254 23.2804 2.47625 23.0693 1.14291 22.6693C-0.190421 22.2693 0.503008 21.4507 1.14291 21.1693C1.90671 20.8333 3.80958 20.2359 5.14291 19.8359C6.47625 19.436 7.47625 17.8915 7.80958 17.1693L12.8096 7.66919C14.0874 5.05808 17.1096 -0.130812 18.9762 0.00252097C20.8429 0.135854 20.3096 2.16919 19.8096 3.16919L17.1384 8.98285C17.0341 9.20992 17.018 9.46605 17.0943 9.70401C18.0797 12.7776 19.9642 18.6717 20.4762 20.3359C20.9001 21.7134 20.2994 22.9716 19.7281 23.709C19.5322 23.9619 19.159 23.9057 19.0003 23.628Z" fill="white"/>
</svg>
