<svg width="20" height="20" viewBox="0 0 20 20" fill="none" xmlns="http://www.w3.org/2000/svg">
<path d="M0.588975 2.75442L2.49391 0.923532C2.49391 0.923532 7.44365 -1.11534 14.5147 5.68089C21.5858 12.4771 19.4645 17.2345 19.4645 17.2345L17.5595 19.0654C16.6989 19.8925 15.2756 19.7953 14.5453 18.8595L12.727 16.5293C12.1299 15.7641 12.209 14.6932 12.9128 14.0167L14.5147 12.4771C14.5147 12.4771 14.5147 11.1179 11.6863 8.39938C8.85786 5.68089 7.44365 5.68089 7.44365 5.68089L5.84177 7.22051C5.13798 7.89694 4.02379 7.97305 3.22755 7.39908L0.803188 5.65148C-0.170491 4.9496 -0.271644 3.58159 0.588975 2.75442Z" fill="white"/>
</svg>
