<svg width="22" height="19" viewBox="0 0 22 19" fill="none" xmlns="http://www.w3.org/2000/svg">
<path fill-rule="evenodd" clip-rule="evenodd" d="M2.11591 11.169C0.450388 11.1737 -0.624748 13.0576 0.40132 14.4849C1.87075 16.5288 4.53539 18.1692 8.98393 18.1692C15.8779 18.1692 21.4117 12.5909 20.637 6.00029L21.7719 3.74649C22.559 2.18347 21.1913 0.405409 19.4655 0.748129L17.9661 1.04588C17.5686 0.837619 17.1571 0.680459 16.8056 0.566599C16.1203 0.344709 15.2909 0.169189 14.5232 0.169189C13.1441 0.169189 11.9539 0.5205 11.008 1.22512C10.0728 1.92183 9.54611 2.83744 9.25707 3.67824C9.12382 4.0658 9.03509 4.45453 8.97816 4.82762C8.4431 4.66042 7.89752 4.43545 7.3634 4.16074C6.15161 3.53751 5.17172 2.74741 4.61895 2.0547C3.69155 0.892489 1.72618 0.978659 1.03651 2.4894C0.0644834 4.61866 0.331123 7.14265 1.20485 9.18209C1.49771 9.86559 1.87866 10.5413 2.34407 11.1675C2.26439 11.1684 2.18817 11.1688 2.11591 11.169ZM8.98383 16.1692C5.09292 16.1692 3.08099 14.7699 2.04067 13.3229C1.99393 13.2579 2.04106 13.1692 2.1215 13.169C3.17984 13.166 5.35223 13.1163 6.78499 12.2837C6.85908 12.2406 6.84278 12.1321 6.7614 12.105C3.42156 10.99 1.52308 6.26778 2.87101 3.31509C2.90192 3.24739 2.99357 3.23846 3.04007 3.29673C4.57985 5.22637 7.94651 7.11639 10.8756 7.1681C10.9392 7.16919 10.9872 7.11189 10.9776 7.04952C10.8595 6.28972 10.4088 2.16919 14.5231 2.16919C15.5055 2.16919 16.9673 2.64502 17.5057 3.13249C17.5306 3.15502 17.5643 3.16525 17.5974 3.15869L19.8604 2.70929C19.9426 2.69297 20.0077 2.77764 19.9703 2.85207L18.5666 5.63938C18.5569 5.65873 18.5538 5.68094 18.5576 5.70225C19.5406 11.1892 15.0146 16.1692 8.98383 16.1692Z" fill="#777E91"/>
</svg>
